<svg width="512" height="512" viewBox="0 0 512 512" fill="none" xmlns="http://www.w3.org/2000/svg">
<rect width="512" height="512" fill="#121212"/>
<path d="M141 218.333V355.667C141 360.085 144.582 363.667 149 363.667H210.109C214.527 363.667 218.109 360.085 218.109 355.667V218.333C218.109 213.915 221.69 210.333 226.109 210.333H286.333C290.752 210.333 294.333 213.915 294.333 218.333V355.667C294.333 360.085 297.915 363.667 302.333 363.667H363C367.418 363.667 371 360.085 371 355.667V157C371 152.582 367.418 149 363 149H294.333H225.667C221.248 149 217.667 152.582 217.667 157V202.333C217.667 206.752 214.085 210.333 209.667 210.333H149C144.582 210.333 141 213.915 141 218.333Z" fill="#FF6507" stroke="#FF6507"/>
</svg>
